<svg width="1693" height="1774" xmlns="http://www.w3.org/2000/svg" xmlns:xlink="http://www.w3.org/1999/xlink" xml:space="preserve" overflow="hidden"><defs><filter id="fx0" x="-10%" y="-10%" width="120%" height="120%" filterUnits="userSpaceOnUse" primitiveUnits="userSpaceOnUse"><feComponentTransfer color-interpolation-filters="sRGB"><feFuncR type="discrete" tableValues="0 0"/><feFuncG type="discrete" tableValues="0 0"/><feFuncB type="discrete" tableValues="0 0"/><feFuncA type="linear" slope="0.631373" intercept="0"/></feComponentTransfer><feGaussianBlur stdDeviation="6.875 6.875"/></filter><filter id="fx1" x="-10%" y="-10%" width="120%" height="120%" filterUnits="userSpaceOnUse" primitiveUnits="userSpaceOnUse"><feComponentTransfer color-interpolation-filters="sRGB"><feFuncR type="discrete" tableValues="0 0"/><feFuncG type="discrete" tableValues="0 0"/><feFuncB type="discrete" tableValues="0 0"/><feFuncA type="linear" slope="0.631373" intercept="0"/></feComponentTransfer><feGaussianBlur stdDeviation="6.875 6.875"/></filter><filter id="fx2" x="-10%" y="-10%" width="120%" height="120%" filterUnits="userSpaceOnUse" primitiveUnits="userSpaceOnUse"><feComponentTransfer color-interpolation-filters="sRGB"><feFuncR type="discrete" tableValues="0 0"/><feFuncG type="discrete" tableValues="0 0"/><feFuncB type="discrete" tableValues="0 0"/><feFuncA type="linear" slope="0.631373" intercept="0"/></feComponentTransfer><feGaussianBlur stdDeviation="6.875 6.875"/></filter><filter id="fx3" x="-10%" y="-10%" width="120%" height="120%" filterUnits="userSpaceOnUse" primitiveUnits="userSpaceOnUse"><feComponentTransfer color-interpolation-filters="sRGB"><feFuncR type="discrete" tableValues="0 0"/><feFuncG type="discrete" tableValues="0 0"/><feFuncB type="discrete" tableValues="0 0"/><feFuncA type="linear" slope="0.631373" intercept="0"/></feComponentTransfer><feGaussianBlur stdDeviation="6.875 6.875"/></filter><filter id="fx4" x="-10%" y="-10%" width="120%" height="120%" filterUnits="userSpaceOnUse" primitiveUnits="userSpaceOnUse"><feComponentTransfer color-interpolation-filters="sRGB"><feFuncR type="discrete" tableValues="0 0"/><feFuncG type="discrete" tableValues="0 0"/><feFuncB type="discrete" tableValues="0 0"/><feFuncA type="linear" slope="0.631373" intercept="0"/></feComponentTransfer><feGaussianBlur stdDeviation="6.875 6.875"/></filter><filter id="fx5" x="-10%" y="-10%" width="120%" height="120%" filterUnits="userSpaceOnUse" primitiveUnits="userSpaceOnUse"><feComponentTransfer color-interpolation-filters="sRGB"><feFuncR type="discrete" tableValues="0 0"/><feFuncG type="discrete" tableValues="0 0"/><feFuncB type="discrete" tableValues="0 0"/><feFuncA type="linear" slope="0.631373" intercept="0"/></feComponentTransfer><feGaussianBlur stdDeviation="6.875 6.875"/></filter><filter id="fx6" x="-10%" y="-10%" width="120%" height="120%" filterUnits="userSpaceOnUse" primitiveUnits="userSpaceOnUse"><feComponentTransfer color-interpolation-filters="sRGB"><feFuncR type="discrete" tableValues="0 0"/><feFuncG type="discrete" tableValues="0 0"/><feFuncB type="discrete" tableValues="0 0"/><feFuncA type="linear" slope="0.631373" intercept="0"/></feComponentTransfer><feGaussianBlur stdDeviation="6.875 6.875"/></filter><filter id="fx7" x="-10%" y="-10%" width="120%" height="120%" filterUnits="userSpaceOnUse" primitiveUnits="userSpaceOnUse"><feComponentTransfer color-interpolation-filters="sRGB"><feFuncR type="discrete" tableValues="0 0"/><feFuncG type="discrete" tableValues="0 0"/><feFuncB type="discrete" tableValues="0 0"/><feFuncA type="linear" slope="0.631373" intercept="0"/></feComponentTransfer><feGaussianBlur stdDeviation="6.875 6.875"/></filter><filter id="fx8" x="-10%" y="-10%" width="120%" height="120%" filterUnits="userSpaceOnUse" primitiveUnits="userSpaceOnUse"><feComponentTransfer color-interpolation-filters="sRGB"><feFuncR type="discrete" tableValues="0 0"/><feFuncG type="discrete" tableValues="0 0"/><feFuncB type="discrete" tableValues="0 0"/><feFuncA type="linear" slope="0.631373" intercept="0"/></feComponentTransfer><feGaussianBlur stdDeviation="6.875 6.875"/></filter><filter id="fx9" x="-10%" y="-10%" width="120%" height="120%" filterUnits="userSpaceOnUse" primitiveUnits="userSpaceOnUse"><feComponentTransfer color-interpolation-filters="sRGB"><feFuncR type="discrete" tableValues="0 0"/><feFuncG type="discrete" tableValues="0 0"/><feFuncB type="discrete" tableValues="0 0"/><feFuncA type="linear" slope="0.631373" intercept="0"/></feComponentTransfer><feGaussianBlur stdDeviation="6.875 6.875"/></filter><filter id="fx10" x="-10%" y="-10%" width="120%" height="120%" filterUnits="userSpaceOnUse" primitiveUnits="userSpaceOnUse"><feComponentTransfer color-interpolation-filters="sRGB"><feFuncR type="discrete" tableValues="0 0"/><feFuncG type="discrete" tableValues="0 0"/><feFuncB type="discrete" tableValues="0 0"/><feFuncA type="linear" slope="0.631373" intercept="0"/></feComponentTransfer><feGaussianBlur stdDeviation="6.875 6.875"/></filter><filter id="fx11" x="-10%" y="-10%" width="120%" height="120%" filterUnits="userSpaceOnUse" primitiveUnits="userSpaceOnUse"><feComponentTransfer color-interpolation-filters="sRGB"><feFuncR type="discrete" tableValues="0 0"/><feFuncG type="discrete" tableValues="0 0"/><feFuncB type="discrete" tableValues="0 0"/><feFuncA type="linear" slope="0.631373" intercept="0"/></feComponentTransfer><feGaussianBlur stdDeviation="6.875 6.875"/></filter><filter id="fx12" x="-10%" y="-10%" width="120%" height="120%" filterUnits="userSpaceOnUse" primitiveUnits="userSpaceOnUse"><feComponentTransfer color-interpolation-filters="sRGB"><feFuncR type="discrete" tableValues="0 0"/><feFuncG type="discrete" tableValues="0 0"/><feFuncB type="discrete" tableValues="0 0"/><feFuncA type="linear" slope="0.631373" intercept="0"/></feComponentTransfer><feGaussianBlur stdDeviation="6.875 6.875"/></filter><filter id="fx13" x="-10%" y="-10%" width="120%" height="120%" filterUnits="userSpaceOnUse" primitiveUnits="userSpaceOnUse"><feComponentTransfer color-interpolation-filters="sRGB"><feFuncR type="discrete" tableValues="0 0"/><feFuncG type="discrete" tableValues="0 0"/><feFuncB type="discrete" tableValues="0 0"/><feFuncA type="linear" slope="0.631373" intercept="0"/></feComponentTransfer><feGaussianBlur stdDeviation="6.875 6.875"/></filter><clipPath id="clip14"><rect x="144" y="263" width="1693" height="1774"/></clipPath><clipPath id="clip15"><rect x="60" y="49" width="427" height="121"/></clipPath><linearGradient x1="990.5" y1="835" x2="990.5" y2="1450" gradientUnits="userSpaceOnUse" spreadMethod="reflect" id="fill16"><stop offset="0" stop-color="#45A6DF"/><stop offset="0.5" stop-color="#009FE0"/><stop offset="1" stop-color="#0091D0"/></linearGradient><clipPath id="clip17"><rect x="30" y="27" width="332" height="84"/></clipPath><clipPath id="clip18"><rect x="34" y="27" width="416" height="92"/></clipPath><linearGradient x1="1525" y1="586" x2="1525" y2="1090" gradientUnits="userSpaceOnUse" spreadMethod="reflect" id="fill19"><stop offset="0" stop-color="#46A1D6"/><stop offset="0.5" stop-color="#0098D6"/><stop offset="1" stop-color="#008AC6"/></linearGradient><clipPath id="clip20"><rect x="34" y="27" width="214" height="84"/></clipPath><linearGradient x1="1525" y1="1195" x2="1525" y2="1699" gradientUnits="userSpaceOnUse" spreadMethod="reflect" id="fill21"><stop offset="0" stop-color="#48B8D4"/><stop offset="0.5" stop-color="#07B3D3"/><stop offset="1" stop-color="#00A4C3"/></linearGradient><clipPath id="clip22"><rect x="34" y="27" width="302" height="92"/></clipPath><linearGradient x1="992" y1="1505" x2="992" y2="2009" gradientUnits="userSpaceOnUse" spreadMethod="reflect" id="fill23"><stop offset="0" stop-color="#49CED2"/><stop offset="0.5" stop-color="#0ECCD0"/><stop offset="1" stop-color="#04BCC0"/></linearGradient><clipPath id="clip24"><rect x="30" y="27" width="302" height="92"/></clipPath><linearGradient x1="455.5" y1="1196" x2="455.5" y2="1699" gradientUnits="userSpaceOnUse" spreadMethod="reflect" id="fill25"><stop offset="0" stop-color="#4BCFBD"/><stop offset="0.5" stop-color="#16CDB9"/><stop offset="1" stop-color="#0ABDAA"/></linearGradient><clipPath id="clip26"><rect x="34" y="27" width="100" height="84"/></clipPath><linearGradient x1="455.5" y1="586" x2="455.5" y2="1089" gradientUnits="userSpaceOnUse" spreadMethod="reflect" id="fill27"><stop offset="0" stop-color="#4ECCA8"/><stop offset="0.5" stop-color="#1DCAA0"/><stop offset="1" stop-color="#12BA91"/></linearGradient></defs><g clip-path="url(#clip14)" transform="translate(-144 -263)"><g filter="url(#fx0)" transform="translate(613 820)"><g><path d="M21.9999 329.375 197.705 21.8749 557.295 21.8749 733 329.375 557.295 636.875 197.705 636.875Z" fill="#FF0000" fill-rule="evenodd"/></g></g><g clip-path="url(#clip15)" filter="url(#fx1)" transform="translate(715 1032)"><g><path d="M9.844 0 1.84-67.16 9.476-67.16 14.72-17.48C14.9653-15.456 15.1493-13.3553 15.272-11.178 15.3947-9.00067 15.4867-7.268 15.548-5.98 15.6707-7.268 15.8393-9.00067 16.054-11.178 16.2687-13.3553 16.4987-15.456 16.744-17.48L23.368-67.16 32.292-67.16 38.364-17.48C38.6093-15.456 38.8547-13.3553 39.1-11.178 39.3453-9.00067 39.5293-7.268 39.652-5.98 39.7747-7.268 39.9127-9.00067 40.066-11.178 40.2193-13.3553 40.4187-15.456 40.664-17.48L46.092-67.16 53.36-67.16 45.172 0 34.776 0 28.704-50.6C28.4587-52.6853 28.2747-54.7247 28.152-56.718 28.0293-58.7113 27.9067-60.26 27.784-61.364 27.6613-60.26 27.5387-58.7113 27.416-56.718 27.2933-54.7247 27.0787-52.6853 26.772-50.6L20.24 0ZM62.82 0 62.82-7.544 80.76-7.544 80.76-43.056 64.66-43.056 64.66-50.6 89.04-50.6 89.04-7.544 106.06-7.544 106.06 0ZM83.98-59.708C81.956-59.708 80.3613-60.2293 79.196-61.272 78.0307-62.3147 77.448-63.7253 77.448-65.504 77.448-67.344 78.0307-68.8007 79.196-69.874 80.3613-70.9473 81.956-71.484 83.98-71.484 86.004-71.484 87.5987-70.9473 88.764-69.874 89.9293-68.8007 90.512-67.344 90.512-65.504 90.512-63.7253 89.9293-62.3147 88.764-61.272 87.5987-60.2293 86.004-59.708 83.98-59.708ZM120.304 0 120.304-50.6 128.584-50.6 128.584-40.94 128.768-40.94C129.197-44.1907 130.577-46.7667 132.908-48.668 135.239-50.5693 138.367-51.52 142.292-51.52 147.567-51.52 151.63-49.9407 154.482-46.782 157.334-43.6233 158.76-39.1307 158.76-33.304L158.76-28.98 150.48-28.98 150.48-33.304C150.48-40.664 146.892-44.344 139.716-44.344 136.097-44.344 133.337-43.3013 131.436-41.216 129.535-39.1307 128.584-36.1253 128.584-32.2L128.584 0ZM197.66 0C193.489 0 190.147-1.21133 187.632-3.634 185.117-6.05667 183.86-9.292 183.86-13.34L183.86-43.056 169.324-43.056 169.324-50.6 183.86-50.6 183.86-64.86 192.14-64.86 192.14-50.6 212.84-50.6 212.84-43.056 192.14-43.056 192.14-13.34C192.14-11.6227 192.646-10.2273 193.658-9.154 194.67-8.08067 196.004-7.544 197.66-7.544L212.38-7.544 212.38 0ZM247.508 0.92C241.681 0.92 237.02-0.812667 233.524-4.278 230.028-7.74333 228.28-12.4507 228.28-18.4L228.28-50.6 236.56-50.6 236.56-18.4C236.56-14.72 237.541-11.7913 239.504-9.614 241.467-7.43667 244.135-6.348 247.508-6.348 250.943-6.348 253.657-7.43667 255.65-9.614 257.643-11.7913 258.64-14.72 258.64-18.4L258.64-50.6 266.92-50.6 266.92-18.4C266.92-12.4507 265.141-7.74333 261.584-4.278 258.027-0.812667 253.335 0.92 247.508 0.92ZM298.184 0.92C292.971 0.92 288.831-0.536667 285.764-3.45 282.697-6.36333 281.164-10.1813 281.164-14.904 281.164-18.032 281.869-20.7613 283.28-23.092 284.691-25.4227 286.653-27.2473 289.168-28.566 291.683-29.8847 294.565-30.544 297.816-30.544L313.456-30.544 313.456-34.5C313.456-41.0627 309.868-44.344 302.692-44.344 299.503-44.344 296.927-43.7613 294.964-42.596 293.001-41.4307 291.959-39.8053 291.836-37.72L283.556-37.72C283.863-41.7067 285.718-45.0033 289.122-47.61 292.526-50.2167 297.049-51.52 302.692-51.52 308.825-51.52 313.533-50.048 316.814-47.104 320.095-44.16 321.736-40.0507 321.736-34.776L321.736 0 313.548 0 313.548-9.2 313.364-9.2C312.873-6.072 311.309-3.60333 308.672-1.794 306.035 0.0153333 302.539 0.92 298.184 0.92ZM300.208-6.072C304.256-6.072 307.476-7.05333 309.868-9.016 312.26-10.9787 313.456-13.6467 313.456-17.02L313.456-24.104 298.736-24.104C296.037-24.104 293.845-23.2913 292.158-21.666 290.471-20.0407 289.628-17.8787 289.628-15.18 289.628-12.3587 290.563-10.1353 292.434-8.51 294.305-6.88467 296.896-6.072 300.208-6.072ZM364.96 0C360.483 0 356.91-1.30333 354.242-3.91 351.574-6.51667 350.24-9.96667 350.24-14.26L350.24-59.616 332.76-59.616 332.76-67.16 358.52-67.16 358.52-14.26C358.52-12.1747 359.103-10.534 360.268-9.338 361.433-8.142 362.997-7.544 364.96-7.544L380.6-7.544 380.6 0Z" transform="matrix(1 0 0 1 82.9097 145)"/></g></g><path d="M635 1142.5 810.705 835 1170.3 835 1346 1142.5 1170.3 1450 810.705 1450Z" fill="url(#fill16)" fill-rule="evenodd"/><text font-family="JetBrains Mono,JetBrains Mono_MSFontService,sans-serif" font-weight="400" font-size="92" transform="matrix(1 0 0 1 797.91 1170)">Wirtual</text><path d="M1080 657 1146.47 542 1281.53 542 1348 657 1281.53 772 1146.47 772Z" fill="#CBD7ED" fill-rule="evenodd"/><g filter="url(#fx2)" transform="translate(679 262)"><g><path d="M21.9999 273.375 165.707 21.8751 460.293 21.8751 604 273.375 460.293 524.875 165.707 524.875Z" fill="#0079D6" fill-rule="evenodd"/></g></g><g clip-path="url(#clip17)" filter="url(#fx3)" transform="translate(793 463)"><g><path d="M11.424 0 2.4-35.04 6.816-35.04 12.816-11.184C13.232-9.52 13.576-7.984 13.848-6.576 14.12-5.168 14.32-4.096 14.448-3.36 14.576-4.096 14.792-5.176 15.096-6.6 15.4-8.024 15.76-9.568 16.176-11.232L21.936-35.04 26.4-35.04 17.328 0ZM43.275 0.48C40.171 0.48 37.667-0.456 35.763-2.328 33.859-4.2 32.907-6.784 32.907-10.08L32.907-16.32C32.907-19.616 33.859-22.2 35.763-24.072 37.667-25.944 40.171-26.88 43.275-26.88 45.355-26.88 47.171-26.464 48.723-25.632 50.275-24.8 51.483-23.632 52.347-22.128 53.211-20.624 53.643-18.848 53.643-16.8L53.643-12.096 37.131-12.096 37.131-9.6C37.131-7.648 37.691-6.104 38.811-4.968 39.931-3.832 41.419-3.264 43.275-3.264 44.875-3.264 46.195-3.576 47.235-4.2 48.275-4.824 48.907-5.664 49.131-6.72L53.451-6.72C53.163-4.512 52.091-2.76 50.235-1.464 48.379-0.168 46.059 0.48 43.275 0.48ZM37.131-15.456 49.419-15.456 49.419-16.8C49.419-18.88 48.883-20.488 47.811-21.624 46.739-22.76 45.227-23.328 43.275-23.328 41.323-23.328 39.811-22.76 38.739-21.624 37.667-20.488 37.131-18.88 37.131-16.8ZM63.126 0 63.126-26.4 67.446-26.4 67.446-21.36 67.542-21.36C67.766-23.056 68.486-24.4 69.702-25.392 70.918-26.384 72.55-26.88 74.598-26.88 77.35-26.88 79.47-26.056 80.958-24.408 82.446-22.76 83.19-20.416 83.19-17.376L83.19-15.12 78.87-15.12 78.87-17.376C78.87-21.216 76.998-23.136 73.254-23.136 71.366-23.136 69.926-22.592 68.934-21.504 67.942-20.416 67.446-18.848 67.446-16.8L67.446 0ZM90.705 0 90.705-3.936 100.065-3.936 100.065-22.464 91.665-22.464 91.665-26.4 104.385-26.4 104.385-3.936 113.265-3.936 113.265 0ZM101.745-31.152C100.689-31.152 99.857-31.424 99.249-31.968 98.641-32.512 98.337-33.248 98.337-34.176 98.337-35.136 98.641-35.896 99.249-36.456 99.857-37.016 100.689-37.296 101.745-37.296 102.801-37.296 103.633-37.016 104.241-36.456 104.849-35.896 105.153-35.136 105.153-34.176 105.153-33.248 104.849-32.512 104.241-31.968 103.633-31.424 102.801-31.152 101.745-31.152ZM125.82 0 125.82-18.864 118.14-18.864 118.14-22.8 125.82-22.8 125.82-28.32C125.82-30.4 126.476-32.04 127.788-33.24 129.1-34.44 130.908-35.04 133.212-35.04L140.94-35.04 140.94-31.104 133.212-31.104C131.164-31.104 130.14-30.176 130.14-28.32L130.14-22.8 140.94-22.8 140.94-18.864 130.14-18.864 130.14 0ZM148.455 0 148.455-3.936 157.815-3.936 157.815-22.464 149.415-22.464 149.415-26.4 162.135-26.4 162.135-3.936 171.015-3.936 171.015 0ZM159.495-31.152C158.439-31.152 157.607-31.424 156.999-31.968 156.391-32.512 156.087-33.248 156.087-34.176 156.087-35.136 156.391-35.896 156.999-36.456 157.607-37.016 158.439-37.296 159.495-37.296 160.551-37.296 161.383-37.016 161.991-36.456 162.599-35.896 162.903-35.136 162.903-34.176 162.903-33.248 162.599-32.512 161.991-31.968 161.383-31.424 160.551-31.152 159.495-31.152ZM185.346 0.48C182.626 0.48 180.466-0.28 178.866-1.8 177.266-3.32 176.466-5.312 176.466-7.776 176.466-9.408 176.834-10.832 177.57-12.048 178.306-13.264 179.33-14.216 180.642-14.904 181.954-15.592 183.458-15.936 185.154-15.936L193.314-15.936 193.314-18C193.314-21.424 191.442-23.136 187.698-23.136 186.034-23.136 184.69-22.832 183.666-22.224 182.642-21.616 182.098-20.768 182.034-19.68L177.714-19.68C177.874-21.76 178.842-23.48 180.618-24.84 182.394-26.2 184.754-26.88 187.698-26.88 190.898-26.88 193.354-26.112 195.066-24.576 196.778-23.04 197.634-20.896 197.634-18.144L197.634 0 193.362 0 193.362-4.8 193.266-4.8C193.01-3.168 192.194-1.88 190.818-0.936 189.442 0.00799999 187.618 0.48 185.346 0.48ZM186.402-3.168C188.514-3.168 190.194-3.68 191.442-4.704 192.69-5.728 193.314-7.12 193.314-8.88L193.314-12.576 185.634-12.576C184.226-12.576 183.082-12.152 182.202-11.304 181.322-10.456 180.882-9.328 180.882-7.92 180.882-6.448 181.37-5.288 182.346-4.44 183.322-3.592 184.674-3.168 186.402-3.168ZM218.061 0.48C216.077 0.48 214.445-0.00800002 213.165-0.984 211.885-1.96 211.133-3.312 210.909-5.04L210.861-5.04 210.861 0 206.541 0 206.541-35.04 210.861-35.04 210.861-27.36 210.765-21.36 210.813-21.36C211.069-23.056 211.845-24.4 213.141-25.392 214.437-26.384 216.077-26.88 218.061-26.88 220.717-26.88 222.829-26 224.397-24.24 225.965-22.48 226.749-20.08 226.749-17.04L226.749-9.312C226.749-6.304 225.965-3.92 224.397-2.16 222.829-0.4 220.717 0.48 218.061 0.48ZM216.621-3.264C218.445-3.264 219.869-3.744 220.893-4.704 221.917-5.664 222.429-7.216 222.429-9.36L222.429-17.04C222.429-19.216 221.917-20.776 220.893-21.72 219.869-22.664 218.445-23.136 216.621-23.136 214.861-23.136 213.461-22.576 212.421-21.456 211.381-20.336 210.861-18.784 210.861-16.8L210.861-9.6C210.861-7.616 211.381-6.064 212.421-4.944 213.461-3.824 214.861-3.264 216.621-3.264ZM249.24 0C246.904 0 245.04-0.68 243.648-2.04 242.256-3.4 241.56-5.2 241.56-7.44L241.56-31.104 232.44-31.104 232.44-35.04 245.88-35.04 245.88-7.44C245.88-6.352 246.184-5.496 246.792-4.872 247.4-4.248 248.216-3.936 249.24-3.936L257.4-3.936 257.4 0ZM274.275 0.48C271.171 0.48 268.667-0.456 266.763-2.328 264.859-4.2 263.907-6.784 263.907-10.08L263.907-16.32C263.907-19.616 264.859-22.2 266.763-24.072 268.667-25.944 271.171-26.88 274.275-26.88 276.355-26.88 278.171-26.464 279.723-25.632 281.275-24.8 282.483-23.632 283.347-22.128 284.211-20.624 284.643-18.848 284.643-16.8L284.643-12.096 268.131-12.096 268.131-9.6C268.131-7.648 268.691-6.104 269.811-4.968 270.931-3.832 272.419-3.264 274.275-3.264 275.875-3.264 277.195-3.576 278.235-4.2 279.275-4.824 279.907-5.664 280.131-6.72L284.451-6.72C284.163-4.512 283.091-2.76 281.235-1.464 279.379-0.168 277.059 0.48 274.275 0.48ZM268.131-15.456 280.419-15.456 280.419-16.8C280.419-18.88 279.883-20.488 278.811-21.624 277.739-22.76 276.227-23.328 274.275-23.328 272.323-23.328 270.811-22.76 269.739-21.624 268.667-20.488 268.131-18.88 268.131-16.8Z" fill="#FFFFFF" transform="matrix(1 0 0 1 54.3563 87)"/></g></g><path d="M701 528.5 844.707 277 1139.29 277 1283 528.5 1139.29 780 844.707 780Z" fill="#0079D6" fill-rule="evenodd"/><text fill="#FFFFFF" font-family="JetBrains Mono,JetBrains Mono_MSFontService,sans-serif" font-weight="400" font-size="48" transform="matrix(1 0 0 1 847.356 543)">Verifiable</text><path d="M1393 1088.5 1459.76 973 1594.24 973 1661 1088.5 1594.24 1204 1459.76 1204Z" fill="#CBD7ED" fill-rule="evenodd"/><g filter="url(#fx4)" transform="translate(1212 571)"><g><path d="M22.0001 273.875 165.993 21.8751 460.007 21.8751 604 273.875 460.007 525.875 165.993 525.875Z" fill="#FF0000" fill-rule="evenodd"/></g></g><g clip-path="url(#clip18)" filter="url(#fx5)" transform="translate(1284 772)"><g><path d="M5.04 0 5.04-3.936 12.192-3.936 12.192-31.104 5.04-31.104 5.04-35.04 23.76-35.04 23.76-31.104 16.608-31.104 16.608-3.936 23.76-3.936 23.76 0ZM33.291 0 33.291-26.4 37.611-26.4 37.611-21.36 37.659-21.36C37.883-23.12 38.603-24.48 39.819-25.44 41.035-26.4 42.651-26.88 44.667-26.88 47.323-26.88 49.435-26.064 51.003-24.432 52.571-22.8 53.355-20.576 53.355-17.76L53.355 0 49.035 0 49.035-16.992C49.035-19.008 48.531-20.552 47.523-21.624 46.515-22.696 45.147-23.232 43.419-23.232 41.627-23.232 40.211-22.672 39.171-21.552 38.131-20.432 37.611-18.848 37.611-16.8L37.611 0ZM74.79 0C72.614 0 70.87-0.632 69.558-1.896 68.246-3.16 67.59-4.848 67.59-6.96L67.59-22.464 60.006-22.464 60.006-26.4 67.59-26.4 67.59-33.84 71.91-33.84 71.91-26.4 82.71-26.4 82.71-22.464 71.91-22.464 71.91-6.96C71.91-6.064 72.174-5.336 72.702-4.776 73.23-4.216 73.926-3.936 74.79-3.936L82.47-3.936 82.47 0ZM101.025 0.48C97.921 0.48 95.417-0.456 93.513-2.328 91.609-4.2 90.657-6.784 90.657-10.08L90.657-16.32C90.657-19.616 91.609-22.2 93.513-24.072 95.417-25.944 97.921-26.88 101.025-26.88 103.105-26.88 104.921-26.464 106.473-25.632 108.025-24.8 109.233-23.632 110.097-22.128 110.961-20.624 111.393-18.848 111.393-16.8L111.393-12.096 94.881-12.096 94.881-9.6C94.881-7.648 95.441-6.104 96.561-4.968 97.681-3.832 99.169-3.264 101.025-3.264 102.625-3.264 103.945-3.576 104.985-4.2 106.025-4.824 106.657-5.664 106.881-6.72L111.201-6.72C110.913-4.512 109.841-2.76 107.985-1.464 106.129-0.168 103.809 0.48 101.025 0.48ZM94.881-15.456 107.169-15.456 107.169-16.8C107.169-18.88 106.633-20.488 105.561-21.624 104.489-22.76 102.977-23.328 101.025-23.328 99.073-23.328 97.561-22.76 96.489-21.624 95.417-20.488 94.881-18.88 94.881-16.8ZM120.876 0 120.876-26.4 125.196-26.4 125.196-21.36 125.292-21.36C125.516-23.056 126.236-24.4 127.452-25.392 128.668-26.384 130.3-26.88 132.348-26.88 135.1-26.88 137.22-26.056 138.708-24.408 140.196-22.76 140.94-20.416 140.94-17.376L140.94-15.12 136.62-15.12 136.62-17.376C136.62-21.216 134.748-23.136 131.004-23.136 129.116-23.136 127.676-22.592 126.684-21.504 125.692-20.416 125.196-18.848 125.196-16.8L125.196 0ZM158.775 0.384C155.607 0.384 153.087-0.544 151.215-2.4 149.343-4.256 148.407-6.848 148.407-10.176L148.407-16.224C148.407-19.584 149.335-22.184 151.191-24.024 153.047-25.864 155.575-26.784 158.775-26.784 161.975-26.784 164.503-25.864 166.359-24.024 168.215-22.184 169.143-19.584 169.143-16.224L169.143-10.176C169.143-6.848 168.207-4.256 166.335-2.4 164.463-0.544 161.943 0.384 158.775 0.384ZM158.775-3.456C160.663-3.456 162.143-3.984 163.215-5.04 164.287-6.096 164.823-7.648 164.823-9.696L164.823-16.704C164.823-18.752 164.287-20.304 163.215-21.36 162.143-22.416 160.663-22.944 158.775-22.944 156.919-22.944 155.447-22.416 154.359-21.36 153.271-20.304 152.727-18.752 152.727-16.704L152.727-9.696C152.727-7.648 153.271-6.096 154.359-5.04 155.447-3.984 156.919-3.456 158.775-3.456ZM177.666 8.64 177.666-26.4 181.986-26.4 181.986-21.36 182.034-21.36C182.258-23.088 183.01-24.44 184.29-25.416 185.57-26.392 187.202-26.88 189.186-26.88 191.842-26.88 193.954-26.008 195.522-24.264 197.09-22.52 197.874-20.128 197.874-17.088L197.874-9.36C197.874-6.32 197.09-3.92 195.522-2.16 193.954-0.4 191.842 0.48 189.186 0.48 187.202 0.48 185.57-0.016 184.29-1.008 183.01-2 182.258-3.344 182.034-5.04L181.89-5.04 181.986 0.96 181.986 8.64ZM187.746-3.264C189.57-3.264 190.994-3.744 192.018-4.704 193.042-5.664 193.554-7.216 193.554-9.36L193.554-17.04C193.554-19.216 193.042-20.776 192.018-21.72 190.994-22.664 189.57-23.136 187.746-23.136 185.986-23.136 184.586-22.576 183.546-21.456 182.506-20.336 181.986-18.784 181.986-16.8L181.986-9.6C181.986-7.616 182.506-6.064 183.546-4.944 184.586-3.824 185.986-3.264 187.746-3.264ZM216.525 0.48C213.421 0.48 210.917-0.456 209.013-2.328 207.109-4.2 206.157-6.784 206.157-10.08L206.157-16.32C206.157-19.616 207.109-22.2 209.013-24.072 210.917-25.944 213.421-26.88 216.525-26.88 218.605-26.88 220.421-26.464 221.973-25.632 223.525-24.8 224.733-23.632 225.597-22.128 226.461-20.624 226.893-18.848 226.893-16.8L226.893-12.096 210.381-12.096 210.381-9.6C210.381-7.648 210.941-6.104 212.061-4.968 213.181-3.832 214.669-3.264 216.525-3.264 218.125-3.264 219.445-3.576 220.485-4.2 221.525-4.824 222.157-5.664 222.381-6.72L226.701-6.72C226.413-4.512 225.341-2.76 223.485-1.464 221.629-0.168 219.309 0.48 216.525 0.48ZM210.381-15.456 222.669-15.456 222.669-16.8C222.669-18.88 222.133-20.488 221.061-21.624 219.989-22.76 218.477-23.328 216.525-23.328 214.573-23.328 213.061-22.76 211.989-21.624 210.917-20.488 210.381-18.88 210.381-16.8ZM236.376 0 236.376-26.4 240.696-26.4 240.696-21.36 240.792-21.36C241.016-23.056 241.736-24.4 242.952-25.392 244.168-26.384 245.8-26.88 247.848-26.88 250.6-26.88 252.72-26.056 254.208-24.408 255.696-22.76 256.44-20.416 256.44-17.376L256.44-15.12 252.12-15.12 252.12-17.376C252.12-21.216 250.248-23.136 246.504-23.136 244.616-23.136 243.176-22.592 242.184-21.504 241.192-20.416 240.696-18.848 240.696-16.8L240.696 0ZM271.971 0.48C269.251 0.48 267.091-0.28 265.491-1.8 263.891-3.32 263.091-5.312 263.091-7.776 263.091-9.408 263.459-10.832 264.195-12.048 264.931-13.264 265.955-14.216 267.267-14.904 268.579-15.592 270.083-15.936 271.779-15.936L279.939-15.936 279.939-18C279.939-21.424 278.067-23.136 274.323-23.136 272.659-23.136 271.315-22.832 270.291-22.224 269.267-21.616 268.723-20.768 268.659-19.68L264.339-19.68C264.499-21.76 265.467-23.48 267.243-24.84 269.019-26.2 271.379-26.88 274.323-26.88 277.523-26.88 279.979-26.112 281.691-24.576 283.403-23.04 284.259-20.896 284.259-18.144L284.259 0 279.987 0 279.987-4.8 279.891-4.8C279.635-3.168 278.819-1.88 277.443-0.936 276.067 0.00799999 274.243 0.48 271.971 0.48ZM273.027-3.168C275.139-3.168 276.819-3.68 278.067-4.704 279.315-5.728 279.939-7.12 279.939-8.88L279.939-12.576 272.259-12.576C270.851-12.576 269.707-12.152 268.827-11.304 267.947-10.456 267.507-9.328 267.507-7.92 267.507-6.448 267.995-5.288 268.971-4.44 269.947-3.592 271.299-3.168 273.027-3.168ZM304.686 0.48C302.702 0.48 301.07-0.00800002 299.79-0.984 298.51-1.96 297.758-3.312 297.534-5.04L297.486-5.04 297.486 0 293.166 0 293.166-35.04 297.486-35.04 297.486-27.36 297.39-21.36 297.438-21.36C297.694-23.056 298.47-24.4 299.766-25.392 301.062-26.384 302.702-26.88 304.686-26.88 307.342-26.88 309.454-26 311.022-24.24 312.59-22.48 313.374-20.08 313.374-17.04L313.374-9.312C313.374-6.304 312.59-3.92 311.022-2.16 309.454-0.4 307.342 0.48 304.686 0.48ZM303.246-3.264C305.07-3.264 306.494-3.744 307.518-4.704 308.542-5.664 309.054-7.216 309.054-9.36L309.054-17.04C309.054-19.216 308.542-20.776 307.518-21.72 306.494-22.664 305.07-23.136 303.246-23.136 301.486-23.136 300.086-22.576 299.046-21.456 298.006-20.336 297.486-18.784 297.486-16.8L297.486-9.6C297.486-7.616 298.006-6.064 299.046-4.944 300.086-3.824 301.486-3.264 303.246-3.264ZM335.865 0C333.529 0 331.665-0.68 330.273-2.04 328.881-3.4 328.185-5.2 328.185-7.44L328.185-31.104 319.065-31.104 319.065-35.04 332.505-35.04 332.505-7.44C332.505-6.352 332.809-5.496 333.417-4.872 334.025-4.248 334.841-3.936 335.865-3.936L344.025-3.936 344.025 0ZM360.9 0.48C357.796 0.48 355.292-0.456 353.388-2.328 351.484-4.2 350.532-6.784 350.532-10.08L350.532-16.32C350.532-19.616 351.484-22.2 353.388-24.072 355.292-25.944 357.796-26.88 360.9-26.88 362.98-26.88 364.796-26.464 366.348-25.632 367.9-24.8 369.108-23.632 369.972-22.128 370.836-20.624 371.268-18.848 371.268-16.8L371.268-12.096 354.756-12.096 354.756-9.6C354.756-7.648 355.316-6.104 356.436-4.968 357.556-3.832 359.044-3.264 360.9-3.264 362.5-3.264 363.82-3.576 364.86-4.2 365.9-4.824 366.532-5.664 366.756-6.72L371.076-6.72C370.788-4.512 369.716-2.76 367.86-1.464 366.004-0.168 363.684 0.48 360.9 0.48ZM354.756-15.456 367.044-15.456 367.044-16.8C367.044-18.88 366.508-20.488 365.436-21.624 364.364-22.76 362.852-23.328 360.9-23.328 358.948-23.328 357.436-22.76 356.364-21.624 355.292-20.488 354.756-18.88 354.756-16.8Z" fill="#FFFFFF" transform="matrix(1 0 0 1 53.7971 87)"/></g></g><path d="M1234 838 1377.99 586 1672.01 586 1816 838 1672.01 1090 1377.99 1090Z" fill="url(#fill19)" fill-rule="evenodd"/><text fill="#FFFFFF" font-family="JetBrains Mono,JetBrains Mono_MSFontService,sans-serif" font-weight="400" font-size="48" transform="matrix(1 0 0 1 1337.8 852)">Interoperable</text><path d="M1176 1575.5 1242.76 1460 1376.24 1460 1443 1575.5 1376.24 1691 1242.76 1691Z" fill="#CBD7ED" fill-rule="evenodd"/><g filter="url(#fx6)" transform="translate(1212 1180)"><g><path d="M22.0001 273.875 165.993 21.8749 460.007 21.8749 604 273.875 460.007 525.875 165.993 525.875Z" fill="#FF0000" fill-rule="evenodd"/></g></g><g clip-path="url(#clip20)" filter="url(#fx7)" transform="translate(1385 1381)"><g><path d="M14.592 0.48C11.2 0.48 8.496-0.416 6.48-2.208 4.464-4 3.456-6.464 3.456-9.6L7.776-9.6C7.776-7.648 8.4-6.12 9.648-5.016 10.896-3.912 12.544-3.36 14.592-3.36 16.576-3.36 18.16-3.936 19.344-5.088 20.528-6.24 21.12-7.744 21.12-9.6 21.12-11.008 20.744-12.232 19.992-13.272 19.24-14.312 18.16-15.024 16.752-15.408L11.424-16.896C9.216-17.536 7.48-18.68 6.216-20.328 4.952-21.976 4.32-23.92 4.32-26.16 4.32-28.016 4.736-29.648 5.568-31.056 6.4-32.464 7.568-33.56 9.072-34.344 10.576-35.128 12.304-35.52 14.256-35.52 16.24-35.52 17.992-35.128 19.512-34.344 21.032-33.56 22.224-32.472 23.088-31.08 23.952-29.688 24.384-28.08 24.384-26.256L20.064-26.256C20.064-27.856 19.52-29.16 18.432-30.168 17.344-31.176 15.952-31.68 14.256-31.68 12.56-31.68 11.184-31.176 10.128-30.168 9.072-29.16 8.544-27.856 8.544-26.256 8.544-24.976 8.888-23.88 9.576-22.968 10.264-22.056 11.232-21.424 12.48-21.072L17.952-19.536C20.288-18.896 22.104-17.688 23.4-15.912 24.696-14.136 25.344-12.032 25.344-9.6 25.344-6.528 24.368-4.08 22.416-2.256 20.464-0.432 17.856 0.48 14.592 0.48ZM43.275 0.48C40.171 0.48 37.667-0.456 35.763-2.328 33.859-4.2 32.907-6.784 32.907-10.08L32.907-16.32C32.907-19.616 33.859-22.2 35.763-24.072 37.667-25.944 40.171-26.88 43.275-26.88 45.355-26.88 47.171-26.464 48.723-25.632 50.275-24.8 51.483-23.632 52.347-22.128 53.211-20.624 53.643-18.848 53.643-16.8L53.643-12.096 37.131-12.096 37.131-9.6C37.131-7.648 37.691-6.104 38.811-4.968 39.931-3.832 41.419-3.264 43.275-3.264 44.875-3.264 46.195-3.576 47.235-4.2 48.275-4.824 48.907-5.664 49.131-6.72L53.451-6.72C53.163-4.512 52.091-2.76 50.235-1.464 48.379-0.168 46.059 0.48 43.275 0.48ZM37.131-15.456 49.419-15.456 49.419-16.8C49.419-18.88 48.883-20.488 47.811-21.624 46.739-22.76 45.227-23.328 43.275-23.328 41.323-23.328 39.811-22.76 38.739-21.624 37.667-20.488 37.131-18.88 37.131-16.8ZM72.534 0.48C69.334 0.48 66.774-0.416 64.854-2.208 62.934-4 61.974-6.464 61.974-9.6L61.974-16.8C61.974-19.936 62.934-22.4 64.854-24.192 66.774-25.984 69.334-26.88 72.534-26.88 75.574-26.88 78.03-26.064 79.902-24.432 81.774-22.8 82.758-20.576 82.854-17.76L78.534-17.76C78.438-19.456 77.862-20.76 76.806-21.672 75.75-22.584 74.326-23.04 72.534-23.04 70.646-23.04 69.134-22.504 67.998-21.432 66.862-20.36 66.294-18.832 66.294-16.848L66.294-9.6C66.294-7.616 66.862-6.08 67.998-4.992 69.134-3.904 70.646-3.36 72.534-3.36 74.326-3.36 75.75-3.824 76.806-4.752 77.862-5.68 78.438-6.976 78.534-8.64L82.854-8.64C82.758-5.824 81.774-3.6 79.902-1.968 78.03-0.336 75.574 0.48 72.534 0.48ZM100.977 0.48C97.937 0.48 95.505-0.424 93.681-2.232 91.857-4.04 90.945-6.496 90.945-9.6L90.945-26.4 95.265-26.4 95.265-9.6C95.265-7.68 95.777-6.152 96.801-5.016 97.825-3.88 99.217-3.312 100.977-3.312 102.769-3.312 104.185-3.88 105.225-5.016 106.265-6.152 106.785-7.68 106.785-9.6L106.785-26.4 111.105-26.4 111.105-9.6C111.105-6.496 110.177-4.04 108.321-2.232 106.465-0.424 104.017 0.48 100.977 0.48ZM120.876 0 120.876-26.4 125.196-26.4 125.196-21.36 125.292-21.36C125.516-23.056 126.236-24.4 127.452-25.392 128.668-26.384 130.3-26.88 132.348-26.88 135.1-26.88 137.22-26.056 138.708-24.408 140.196-22.76 140.94-20.416 140.94-17.376L140.94-15.12 136.62-15.12 136.62-17.376C136.62-21.216 134.748-23.136 131.004-23.136 129.116-23.136 127.676-22.592 126.684-21.504 125.692-20.416 125.196-18.848 125.196-16.8L125.196 0ZM158.775 0.48C155.671 0.48 153.167-0.456 151.263-2.328 149.359-4.2 148.407-6.784 148.407-10.08L148.407-16.32C148.407-19.616 149.359-22.2 151.263-24.072 153.167-25.944 155.671-26.88 158.775-26.88 160.855-26.88 162.671-26.464 164.223-25.632 165.775-24.8 166.983-23.632 167.847-22.128 168.711-20.624 169.143-18.848 169.143-16.8L169.143-12.096 152.631-12.096 152.631-9.6C152.631-7.648 153.191-6.104 154.311-4.968 155.431-3.832 156.919-3.264 158.775-3.264 160.375-3.264 161.695-3.576 162.735-4.2 163.775-4.824 164.407-5.664 164.631-6.72L168.951-6.72C168.663-4.512 167.591-2.76 165.735-1.464 163.879-0.168 161.559 0.48 158.775 0.48ZM152.631-15.456 164.919-15.456 164.919-16.8C164.919-18.88 164.383-20.488 163.311-21.624 162.239-22.76 160.727-23.328 158.775-23.328 156.823-23.328 155.311-22.76 154.239-21.624 153.167-20.488 152.631-18.88 152.631-16.8Z" fill="#FFFFFF" transform="matrix(1 0 0 1 53.8596 87)"/></g></g><path d="M1234 1447 1377.99 1195 1672.01 1195 1816 1447 1672.01 1699 1377.99 1699Z" fill="url(#fill21)" fill-rule="evenodd"/><text fill="#FFFFFF" font-family="JetBrains Mono,JetBrains Mono_MSFontService,sans-serif" font-weight="400" font-size="48" transform="matrix(1 0 0 1 1438.86 1461)">Secure</text><path d="M637 1626.5 703.759 1511 838.241 1511 905 1626.5 838.241 1742 703.759 1742Z" fill="#CBD7ED" fill-rule="evenodd"/><g filter="url(#fx8)" transform="translate(679 1490)"><g><path d="M21.9999 273.875 165.993 21.8749 460.007 21.8749 604 273.875 460.007 525.875 165.993 525.875Z" fill="#FF0000" fill-rule="evenodd"/></g></g><g clip-path="url(#clip22)" filter="url(#fx9)" transform="translate(808 1691)"><g><path d="M14.784 0.48C11.584 0.48 9.056-0.416 7.2-2.208 5.344-4 4.416-6.464 4.416-9.6L4.416-25.44C4.416-28.576 5.344-31.04 7.2-32.832 9.056-34.624 11.584-35.52 14.784-35.52 17.92-35.52 20.416-34.616 22.272-32.808 24.128-31 25.056-28.544 25.056-25.44L20.736-25.44C20.736-27.424 20.216-28.952 19.176-30.024 18.136-31.096 16.672-31.632 14.784-31.632 12.896-31.632 11.416-31.096 10.344-30.024 9.272-28.952 8.736-27.424 8.736-25.44L8.736-9.6C8.736-7.616 9.272-6.088 10.344-5.016 11.416-3.944 12.896-3.408 14.784-3.408 16.672-3.408 18.136-3.944 19.176-5.016 20.216-6.088 20.736-7.616 20.736-9.6L25.056-9.6C25.056-6.496 24.128-4.04 22.272-2.232 20.416-0.424 17.92 0.48 14.784 0.48ZM43.275 0.384C40.107 0.384 37.587-0.544 35.715-2.4 33.843-4.256 32.907-6.848 32.907-10.176L32.907-16.224C32.907-19.584 33.835-22.184 35.691-24.024 37.547-25.864 40.075-26.784 43.275-26.784 46.475-26.784 49.003-25.864 50.859-24.024 52.715-22.184 53.643-19.584 53.643-16.224L53.643-10.176C53.643-6.848 52.707-4.256 50.835-2.4 48.963-0.544 46.443 0.384 43.275 0.384ZM43.275-3.456C45.163-3.456 46.643-3.984 47.715-5.04 48.787-6.096 49.323-7.648 49.323-9.696L49.323-16.704C49.323-18.752 48.787-20.304 47.715-21.36 46.643-22.416 45.163-22.944 43.275-22.944 41.419-22.944 39.947-22.416 38.859-21.36 37.771-20.304 37.227-18.752 37.227-16.704L37.227-9.696C37.227-7.648 37.771-6.096 38.859-5.04 39.947-3.984 41.419-3.456 43.275-3.456ZM65.478 8.64 65.478 4.704 72.918 4.704C74.422 4.704 75.606 4.28 76.47 3.432 77.334 2.584 77.766 1.44 77.766 0L77.766-2.4 77.862-6.72 77.718-6.72C77.462-5.152 76.71-3.944 75.462-3.096 74.214-2.248 72.646-1.824 70.758-1.824 68.038-1.824 65.894-2.688 64.326-4.416 62.758-6.144 61.974-8.512 61.974-11.52L61.974-17.088C61.974-20.096 62.758-22.48 64.326-24.24 65.894-26 68.038-26.88 70.758-26.88 72.646-26.88 74.214-26.432 75.462-25.536 76.71-24.64 77.462-23.408 77.718-21.84L77.814-21.84 77.814-26.4 82.086-26.4 82.086 0C82.086 2.656 81.262 4.76 79.614 6.312 77.966 7.864 75.718 8.64 72.87 8.64ZM72.054-5.424C73.846-5.424 75.254-5.984 76.278-7.104 77.302-8.224 77.814-9.776 77.814-11.76L77.814-16.8C77.814-18.784 77.302-20.336 76.278-21.456 75.254-22.576 73.846-23.136 72.054-23.136 70.23-23.136 68.814-22.608 67.806-21.552 66.798-20.496 66.294-19.072 66.294-17.28L66.294-11.28C66.294-9.488 66.798-8.064 67.806-7.008 68.814-5.952 70.23-5.424 72.054-5.424ZM91.041 0 91.041-26.4 95.361-26.4 95.361-21.36 95.409-21.36C95.633-23.12 96.353-24.48 97.569-25.44 98.785-26.4 100.401-26.88 102.417-26.88 105.073-26.88 107.185-26.064 108.753-24.432 110.321-22.8 111.105-20.576 111.105-17.76L111.105 0 106.785 0 106.785-16.992C106.785-19.008 106.281-20.552 105.273-21.624 104.265-22.696 102.897-23.232 101.169-23.232 99.377-23.232 97.961-22.672 96.921-21.552 95.881-20.432 95.361-18.848 95.361-16.8L95.361 0ZM119.58 0 119.58-3.936 128.94-3.936 128.94-22.464 120.54-22.464 120.54-26.4 133.26-26.4 133.26-3.936 142.14-3.936 142.14 0ZM130.62-31.152C129.564-31.152 128.732-31.424 128.124-31.968 127.516-32.512 127.212-33.248 127.212-34.176 127.212-35.136 127.516-35.896 128.124-36.456 128.732-37.016 129.564-37.296 130.62-37.296 131.676-37.296 132.508-37.016 133.116-36.456 133.724-35.896 134.028-35.136 134.028-34.176 134.028-33.248 133.724-32.512 133.116-31.968 132.508-31.424 131.676-31.152 130.62-31.152ZM161.415 0C159.239 0 157.495-0.632 156.183-1.896 154.871-3.16 154.215-4.848 154.215-6.96L154.215-22.464 146.631-22.464 146.631-26.4 154.215-26.4 154.215-33.84 158.535-33.84 158.535-26.4 169.335-26.4 169.335-22.464 158.535-22.464 158.535-6.96C158.535-6.064 158.799-5.336 159.327-4.776 159.855-4.216 160.551-3.936 161.415-3.936L169.095-3.936 169.095 0ZM177.33 0 177.33-3.936 186.69-3.936 186.69-22.464 178.29-22.464 178.29-26.4 191.01-26.4 191.01-3.936 199.89-3.936 199.89 0ZM188.37-31.152C187.314-31.152 186.482-31.424 185.874-31.968 185.266-32.512 184.962-33.248 184.962-34.176 184.962-35.136 185.266-35.896 185.874-36.456 186.482-37.016 187.314-37.296 188.37-37.296 189.426-37.296 190.258-37.016 190.866-36.456 191.474-35.896 191.778-35.136 191.778-34.176 191.778-33.248 191.474-32.512 190.866-31.968 190.258-31.424 189.426-31.152 188.37-31.152ZM213.693 0 204.717-26.4 209.373-26.4 215.133-8.64C215.485-7.584 215.789-6.568 216.045-5.592 216.301-4.616 216.493-3.856 216.621-3.312 216.781-3.856 216.973-4.616 217.197-5.592 217.421-6.568 217.693-7.584 218.013-8.64L223.773-26.4 228.333-26.4 219.357 0ZM245.4 0.48C242.296 0.48 239.792-0.456 237.888-2.328 235.984-4.2 235.032-6.784 235.032-10.08L235.032-16.32C235.032-19.616 235.984-22.2 237.888-24.072 239.792-25.944 242.296-26.88 245.4-26.88 247.48-26.88 249.296-26.464 250.848-25.632 252.4-24.8 253.608-23.632 254.472-22.128 255.336-20.624 255.768-18.848 255.768-16.8L255.768-12.096 239.256-12.096 239.256-9.6C239.256-7.648 239.816-6.104 240.936-4.968 242.056-3.832 243.544-3.264 245.4-3.264 247-3.264 248.32-3.576 249.36-4.2 250.4-4.824 251.032-5.664 251.256-6.72L255.576-6.72C255.288-4.512 254.216-2.76 252.36-1.464 250.504-0.168 248.184 0.48 245.4 0.48ZM239.256-15.456 251.544-15.456 251.544-16.8C251.544-18.88 251.008-20.488 249.936-21.624 248.864-22.76 247.352-23.328 245.4-23.328 243.448-23.328 241.936-22.76 240.864-21.624 239.792-20.488 239.256-18.88 239.256-16.8Z" fill="#FFFFFF" transform="matrix(1 0 0 1 53.7938 87)"/></g></g><path d="M701 1757 844.993 1505 1139.01 1505 1283 1757 1139.01 2009 844.993 2009Z" fill="url(#fill23)" fill-rule="evenodd"/><text fill="#FFFFFF" font-family="JetBrains Mono,JetBrains Mono_MSFontService,sans-serif" font-weight="400" font-size="48" transform="matrix(1 0 0 1 861.794 1771)">Cognitive</text><path d="M319 1194.5 385.759 1079 520.241 1079 587 1194.5 520.241 1310 385.759 1310Z" fill="#CBD7ED" fill-rule="evenodd"/><g filter="url(#fx10)" transform="translate(143 1181)"><g><path d="M22 273.375 165.707 21.8749 459.293 21.8749 603 273.375 459.293 524.875 165.707 524.875Z" fill="#FF0000" fill-rule="evenodd"/></g></g><g clip-path="url(#clip24)" filter="url(#fx11)" transform="translate(272 1381)"><g><path d="M2.4 0 11.52-35.04 17.328-35.04 26.4 0 22.032 0 19.728-9.312 9.12-9.312 6.816 0ZM9.984-12.96 18.816-12.96 16.128-23.76C15.616-25.808 15.216-27.52 14.928-28.896 14.64-30.272 14.464-31.168 14.4-31.584 14.336-31.168 14.16-30.272 13.872-28.896 13.584-27.52 13.184-25.824 12.672-23.808ZM43.227 0.48C40.187 0.48 37.755-0.424 35.931-2.232 34.107-4.04 33.195-6.496 33.195-9.6L33.195-26.4 37.515-26.4 37.515-9.6C37.515-7.68 38.027-6.152 39.051-5.016 40.075-3.88 41.467-3.312 43.227-3.312 45.019-3.312 46.435-3.88 47.475-5.016 48.515-6.152 49.035-7.68 49.035-9.6L49.035-26.4 53.355-26.4 53.355-9.6C53.355-6.496 52.427-4.04 50.571-2.232 48.715-0.424 46.267 0.48 43.227 0.48ZM65.478 8.64 65.478 4.704 72.918 4.704C74.422 4.704 75.606 4.28 76.47 3.432 77.334 2.584 77.766 1.44 77.766 0L77.766-2.4 77.862-6.72 77.718-6.72C77.462-5.152 76.71-3.944 75.462-3.096 74.214-2.248 72.646-1.824 70.758-1.824 68.038-1.824 65.894-2.688 64.326-4.416 62.758-6.144 61.974-8.512 61.974-11.52L61.974-17.088C61.974-20.096 62.758-22.48 64.326-24.24 65.894-26 68.038-26.88 70.758-26.88 72.646-26.88 74.214-26.432 75.462-25.536 76.71-24.64 77.462-23.408 77.718-21.84L77.814-21.84 77.814-26.4 82.086-26.4 82.086 0C82.086 2.656 81.262 4.76 79.614 6.312 77.966 7.864 75.718 8.64 72.87 8.64ZM72.054-5.424C73.846-5.424 75.254-5.984 76.278-7.104 77.302-8.224 77.814-9.776 77.814-11.76L77.814-16.8C77.814-18.784 77.302-20.336 76.278-21.456 75.254-22.576 73.846-23.136 72.054-23.136 70.23-23.136 68.814-22.608 67.806-21.552 66.798-20.496 66.294-19.072 66.294-17.28L66.294-11.28C66.294-9.488 66.798-8.064 67.806-7.008 68.814-5.952 70.23-5.424 72.054-5.424ZM89.505 0 89.505-26.4 93.249-26.4 93.249-22.896 93.345-22.896C93.505-24.08 93.977-25.04 94.761-25.776 95.545-26.512 96.545-26.88 97.761-26.88 98.913-26.88 99.889-26.544 100.689-25.872 101.489-25.2 102.065-24.288 102.417-23.136L102.465-23.136C102.689-24.288 103.193-25.2 103.977-25.872 104.761-26.544 105.761-26.88 106.977-26.88 108.673-26.88 110.025-26.248 111.033-24.984 112.041-23.72 112.545-22.08 112.545-20.064L112.545 0 108.513 0 108.513-20.112C108.513-21.168 108.257-22.008 107.745-22.632 107.233-23.256 106.529-23.568 105.633-23.568 104.769-23.568 104.081-23.264 103.569-22.656 103.057-22.048 102.801-21.216 102.801-20.16L102.801 0 99.249 0 99.249-20.112C99.249-21.168 98.993-22.008 98.481-22.632 97.969-23.256 97.281-23.568 96.417-23.568 95.521-23.568 94.817-23.264 94.305-22.656 93.793-22.048 93.537-21.216 93.537-20.16L93.537 0ZM129.9 0.48C126.796 0.48 124.292-0.456 122.388-2.328 120.484-4.2 119.532-6.784 119.532-10.08L119.532-16.32C119.532-19.616 120.484-22.2 122.388-24.072 124.292-25.944 126.796-26.88 129.9-26.88 131.98-26.88 133.796-26.464 135.348-25.632 136.9-24.8 138.108-23.632 138.972-22.128 139.836-20.624 140.268-18.848 140.268-16.8L140.268-12.096 123.756-12.096 123.756-9.6C123.756-7.648 124.316-6.104 125.436-4.968 126.556-3.832 128.044-3.264 129.9-3.264 131.5-3.264 132.82-3.576 133.86-4.2 134.9-4.824 135.532-5.664 135.756-6.72L140.076-6.72C139.788-4.512 138.716-2.76 136.86-1.464 135.004-0.168 132.684 0.48 129.9 0.48ZM123.756-15.456 136.044-15.456 136.044-16.8C136.044-18.88 135.508-20.488 134.436-21.624 133.364-22.76 131.852-23.328 129.9-23.328 127.948-23.328 126.436-22.76 125.364-21.624 124.292-20.488 123.756-18.88 123.756-16.8ZM148.791 0 148.791-26.4 153.111-26.4 153.111-21.36 153.159-21.36C153.383-23.12 154.103-24.48 155.319-25.44 156.535-26.4 158.151-26.88 160.167-26.88 162.823-26.88 164.935-26.064 166.503-24.432 168.071-22.8 168.855-20.576 168.855-17.76L168.855 0 164.535 0 164.535-16.992C164.535-19.008 164.031-20.552 163.023-21.624 162.015-22.696 160.647-23.232 158.919-23.232 157.127-23.232 155.711-22.672 154.671-21.552 153.631-20.432 153.111-18.848 153.111-16.8L153.111 0ZM190.29 0C188.114 0 186.37-0.632 185.058-1.896 183.746-3.16 183.09-4.848 183.09-6.96L183.09-22.464 175.506-22.464 175.506-26.4 183.09-26.4 183.09-33.84 187.41-33.84 187.41-26.4 198.21-26.4 198.21-22.464 187.41-22.464 187.41-6.96C187.41-6.064 187.674-5.336 188.202-4.776 188.73-4.216 189.426-3.936 190.29-3.936L197.97-3.936 197.97 0ZM216.525 0.48C213.421 0.48 210.917-0.456 209.013-2.328 207.109-4.2 206.157-6.784 206.157-10.08L206.157-16.32C206.157-19.616 207.109-22.2 209.013-24.072 210.917-25.944 213.421-26.88 216.525-26.88 218.605-26.88 220.421-26.464 221.973-25.632 223.525-24.8 224.733-23.632 225.597-22.128 226.461-20.624 226.893-18.848 226.893-16.8L226.893-12.096 210.381-12.096 210.381-9.6C210.381-7.648 210.941-6.104 212.061-4.968 213.181-3.832 214.669-3.264 216.525-3.264 218.125-3.264 219.445-3.576 220.485-4.2 221.525-4.824 222.157-5.664 222.381-6.72L226.701-6.72C226.413-4.512 225.341-2.76 223.485-1.464 221.629-0.168 219.309 0.48 216.525 0.48ZM210.381-15.456 222.669-15.456 222.669-16.8C222.669-18.88 222.133-20.488 221.061-21.624 219.989-22.76 218.477-23.328 216.525-23.328 214.573-23.328 213.061-22.76 211.989-21.624 210.917-20.488 210.381-18.88 210.381-16.8ZM243.864 0.48C241.24 0.48 239.136-0.4 237.552-2.16 235.968-3.92 235.176-6.304 235.176-9.312L235.176-17.04C235.176-20.08 235.96-22.48 237.528-24.24 239.096-26 241.208-26.88 243.864-26.88 245.848-26.88 247.488-26.384 248.784-25.392 250.08-24.4 250.856-23.056 251.112-21.36L251.16-21.36 251.064-27.36 251.064-35.04 255.384-35.04 255.384 0 251.064 0 251.064-5.04 251.016-5.04C250.792-3.312 250.04-1.96 248.76-0.984 247.48-0.00800002 245.848 0.48 243.864 0.48ZM245.304-3.264C247.096-3.264 248.504-3.824 249.528-4.944 250.552-6.064 251.064-7.616 251.064-9.6L251.064-16.8C251.064-18.784 250.552-20.336 249.528-21.456 248.504-22.576 247.096-23.136 245.304-23.136 243.48-23.136 242.056-22.664 241.032-21.72 240.008-20.776 239.496-19.216 239.496-17.04L239.496-9.36C239.496-7.216 240.008-5.664 241.032-4.704 242.056-3.744 243.48-3.264 245.304-3.264Z" fill="#FFFFFF" transform="matrix(1 0 0 1 53.5626 87)"/></g></g><path d="M165 1447.5 308.707 1196 602.293 1196 746 1447.5 602.293 1699 308.707 1699Z" fill="url(#fill25)" fill-rule="evenodd"/><text fill="#FFFFFF" font-family="JetBrains Mono,JetBrains Mono_MSFontService,sans-serif" font-weight="400" font-size="48" transform="matrix(1 0 0 1 325.563 1462)">Augmented</text><g filter="url(#fx12)" transform="translate(143 571)"><g><path d="M22 273.376 165.707 21.8751 459.293 21.8751 603 273.376 459.293 524.876 165.707 524.876Z" fill="#FF0000" fill-rule="evenodd"/></g></g><g clip-path="url(#clip26)" filter="url(#fx13)" transform="translate(373 772)"><g><path d="M14.4 0.48C11.264 0.48 8.784-0.432 6.96-2.256 5.136-4.08 4.224-6.688 4.224-10.08L4.224-24.96C4.224-28.352 5.136-30.96 6.96-32.784 8.784-34.608 11.264-35.52 14.4-35.52 17.536-35.52 20.016-34.608 21.84-32.784 23.664-30.96 24.576-28.368 24.576-25.008L24.576-10.08C24.576-6.688 23.664-4.08 21.84-2.256 20.016-0.432 17.536 0.48 14.4 0.48ZM14.4-3.408C16.288-3.408 17.736-3.944 18.744-5.016 19.752-6.088 20.256-7.616 20.256-9.6L20.256-25.44C20.256-27.424 19.752-28.952 18.744-30.024 17.736-31.096 16.288-31.632 14.4-31.632 12.544-31.632 11.104-31.096 10.08-30.024 9.056-28.952 8.544-27.424 8.544-25.44L8.544-9.6C8.544-7.616 9.056-6.088 10.08-5.016 11.104-3.944 12.544-3.408 14.4-3.408ZM43.467 0.48C40.075 0.48 37.371-0.416 35.355-2.208 33.339-4 32.331-6.464 32.331-9.6L36.651-9.6C36.651-7.648 37.275-6.12 38.523-5.016 39.771-3.912 41.419-3.36 43.467-3.36 45.451-3.36 47.035-3.936 48.219-5.088 49.403-6.24 49.995-7.744 49.995-9.6 49.995-11.008 49.619-12.232 48.867-13.272 48.115-14.312 47.035-15.024 45.627-15.408L40.299-16.896C38.091-17.536 36.355-18.68 35.091-20.328 33.827-21.976 33.195-23.92 33.195-26.16 33.195-28.016 33.611-29.648 34.443-31.056 35.275-32.464 36.443-33.56 37.947-34.344 39.451-35.128 41.179-35.52 43.131-35.52 45.115-35.52 46.867-35.128 48.387-34.344 49.907-33.56 51.099-32.472 51.963-31.08 52.827-29.688 53.259-28.08 53.259-26.256L48.939-26.256C48.939-27.856 48.395-29.16 47.307-30.168 46.219-31.176 44.827-31.68 43.131-31.68 41.435-31.68 40.059-31.176 39.003-30.168 37.947-29.16 37.419-27.856 37.419-26.256 37.419-24.976 37.763-23.88 38.451-22.968 39.139-22.056 40.107-21.424 41.355-21.072L46.827-19.536C49.163-18.896 50.979-17.688 52.275-15.912 53.571-14.136 54.219-12.032 54.219-9.6 54.219-6.528 53.243-4.08 51.291-2.256 49.339-0.432 46.731 0.48 43.467 0.48Z" fill="#F2F2F2" transform="matrix(1 0 0 1 53.6251 87)"/></g></g><path d="M165 837.501 308.707 586 602.293 586 746 837.501 602.293 1089 308.707 1089Z" fill="url(#fill27)" fill-rule="evenodd"/><text fill="#F2F2F2" font-family="JetBrains Mono,JetBrains Mono_MSFontService,sans-serif" font-weight="400" font-size="48" transform="matrix(1 0 0 1 426.625 852)">OS</text></g></svg>